<?xml version="1.0" standalone="no"?>
<!DOCTYPE svg PUBLIC "-//W3C//DTD SVG 20010904//EN"
 "http://www.w3.org/TR/2001/REC-SVG-20010904/DTD/svg10.dtd">
<svg version="1.0" xmlns="http://www.w3.org/2000/svg"
 width="512.000000pt" height="512.000000pt" viewBox="0 0 512.000000 512.000000"
 preserveAspectRatio="xMidYMid meet">
<metadata>
Created by potrace 1.14, written by Peter Selinger 2001-2017
</metadata>
<g transform="translate(0.000000,512.000000) scale(0.100000,-0.100000)"
fill="#000000" stroke="none">
<path d="M4267 4434 c-1 -1 -29 -5 -62 -8 -121 -14 -266 -42 -365 -71 -25 -8
-79 -23 -120 -35 -41 -12 -84 -25 -95 -30 -11 -5 -66 -27 -123 -50 -315 -124
-673 -345 -953 -591 -91 -80 -285 -274 -359 -359 -35 -41 -72 -83 -82 -93 -10
-10 -18 -22 -18 -27 0 -5 -64 -8 -154 -5 -169 4 -220 -4 -303 -49 -27 -15 -62
-39 -78 -54 -17 -15 -100 -88 -185 -161 -85 -74 -162 -142 -171 -150 -9 -9
-25 -23 -35 -31 -59 -49 -199 -174 -202 -180 -1 -4 39 -19 90 -34 51 -16 210
-64 353 -107 l260 -79 133 -135 c72 -74 132 -138 132 -142 0 -4 -20 -30 -43
-57 l-43 -49 -39 25 c-94 58 -201 86 -317 83 -170 -6 -289 -56 -403 -172 -56
-57 -132 -179 -138 -223 -2 -8 -5 -19 -9 -25 -3 -5 -13 -32 -21 -60 -9 -27
-41 -124 -72 -215 -31 -91 -93 -270 -136 -398 -44 -128 -79 -241 -77 -250 2
-9 11 -17 19 -17 9 0 80 41 158 90 148 94 185 118 213 135 12 7 21 6 32 -6 9
-9 14 -19 11 -24 -3 -4 -8 -40 -11 -79 -7 -70 -6 -71 18 -71 14 0 54 9 89 20
35 10 105 31 154 46 50 16 92 28 95 29 3 1 25 8 50 15 25 7 47 14 50 15 63 15
218 67 260 88 40 19 122 82 162 123 144 151 194 406 119 599 -7 17 -24 53 -38
82 l-26 51 29 25 c16 14 39 34 52 45 l23 20 142 -144 142 -144 28 -93 c16 -50
30 -96 31 -102 2 -5 5 -17 8 -25 3 -8 16 -51 28 -95 13 -44 33 -114 46 -155
13 -41 33 -108 44 -148 12 -39 26 -72 31 -72 5 0 9 3 9 8 0 4 15 23 33 42 17
19 61 69 96 110 36 41 70 80 76 85 6 6 20 22 32 37 19 25 76 90 186 213 97
109 148 182 169 245 20 58 22 82 20 232 l-2 166 67 54 c312 248 641 638 844
1003 155 277 282 620 325 875 2 14 6 34 9 46 2 11 7 45 11 75 3 30 8 57 10 60
2 4 7 68 10 143 l7 137 -112 -2 c-61 -2 -112 -4 -114 -5z"/>
</g>
</svg>
